<svg width="48" height="48" viewBox="0 0 48 48" fill="none" xmlns="http://www.w3.org/2000/svg">
<mask id="mask0_257_203" style="mask-type:alpha" maskUnits="userSpaceOnUse" x="0" y="0" width="48" height="48">
<rect width="48" height="48" fill="#D9D9D9"/>
</mask>
<g mask="url(#mask0_257_203)">
<path d="M16.2735 26.7115L19.831 29.096L23.7885 27.1075L27.6965 29.146L31.2925 26.723L29.0965 22.231C28.9938 22.0257 28.84 21.859 28.635 21.731C28.4297 21.6027 28.2117 21.5385 27.981 21.5385H19.5465C19.3158 21.5385 19.1043 21.6027 18.912 21.731C18.7197 21.859 18.5722 22.0257 18.4695 22.231L16.2735 26.7115ZM9.4655 40.4615H38.035L31.9505 28.154L27.831 30.904L23.7695 28.8925L19.708 30.854L15.5385 28.104L9.4655 40.4615ZM7 42L17.077 21.496C17.318 21.0473 17.66 20.6858 18.103 20.4115C18.5457 20.1372 19.0268 20 19.5465 20H23.0005V6H33.777L32.4285 8.769L33.777 11.5385H24.5385V20H27.8425C28.3692 20 28.8493 20.1372 29.283 20.4115C29.717 20.6858 30.0433 21.0602 30.262 21.5345L40.539 42H7Z" fill="white"/>
</g>
</svg>
