<svg width="48" height="48" viewBox="0 0 48 48" fill="none" xmlns="http://www.w3.org/2000/svg">
<mask id="mask0_257_166" style="mask-type:alpha" maskUnits="userSpaceOnUse" x="0" y="0" width="48" height="48">
<rect width="48" height="48" fill="#D9D9D9"/>
</mask>
<g mask="url(#mask0_257_166)">
<path d="M14.769 5.15381H33.231V19.7653C33.231 20.4806 33.036 21.151 32.646 21.7763C32.2557 22.402 31.7084 22.9226 31.004 23.3383L24.3 27.3228L25.7155 32.1728H31.069L26.6575 35.3383L28.4115 40.7693L24 37.4498L19.577 40.7693L21.2925 35.3383L16.919 32.1728H22.2835L23.6885 27.3228L16.9575 23.4153C16.2532 23.0253 15.7124 22.5046 15.335 21.8533C14.9577 21.2023 14.769 20.5063 14.769 19.7653V5.15381ZM16.3075 6.69231V19.7653C16.3075 20.255 16.4404 20.7088 16.706 21.1268C16.9714 21.5448 17.3309 21.8883 17.7845 22.1573L23.3155 25.2688V6.69231H16.3075ZM31.6925 6.69231H24.854V25.2688L30.2155 22.1573C30.6692 21.8883 31.0287 21.5448 31.294 21.1268C31.5597 20.7088 31.6925 20.255 31.6925 19.7653V6.69231Z" fill="white"/>
</g>
</svg>
