<svg width="48" height="48" viewBox="0 0 48 48" fill="none" xmlns="http://www.w3.org/2000/svg">
<mask id="mask0_257_196" style="mask-type:alpha" maskUnits="userSpaceOnUse" x="0" y="0" width="48" height="48">
<rect width="48" height="48" fill="white"/>
</mask>
<g mask="url(#mask0_257_196)">
<path d="M24 42.3073C23.0717 42.3073 22.2608 41.999 21.5675 41.3823C20.8738 40.7657 20.4757 39.9933 20.373 39.0653H27.627C27.5243 39.9933 27.1262 40.7657 26.4325 41.3823C25.7392 41.999 24.9283 42.3073 24 42.3073ZM16.9385 35.0038V33.4653H31.0615V35.0038H16.9385ZM16.9575 29.4538C15.1165 28.1742 13.6633 26.6197 12.598 24.7903C11.5327 22.9607 11 20.901 11 18.6113C11 15.032 12.2718 11.9705 14.8155 9.42683C17.3592 6.88316 20.4207 5.61133 24 5.61133C27.5793 5.61133 30.6408 6.88316 33.1845 9.42683C35.7282 11.9705 37 15.032 37 18.6113C37 20.901 36.4692 22.9607 35.4075 24.7903C34.3462 26.6197 32.8912 28.1742 31.0425 29.4538H16.9575ZM17.481 27.9153H30.531C32.0797 26.8487 33.2885 25.5038 34.1575 23.8808C35.0268 22.2575 35.4615 20.501 35.4615 18.6113C35.4615 15.4397 34.3442 12.7365 32.1095 10.5018C29.8748 8.26716 27.1717 7.14983 24 7.14983C20.8283 7.14983 18.1252 8.26716 15.8905 10.5018C13.6558 12.7365 12.5385 15.4397 12.5385 18.6113C12.5385 20.501 12.9732 22.2575 13.8425 23.8808C14.7115 25.5038 15.9243 26.8487 17.481 27.9153Z" fill="white"/>
</g>
</svg>
