<svg width="48" height="48" viewBox="0 0 48 48" fill="none" xmlns="http://www.w3.org/2000/svg">
<mask id="mask0_257_233" style="mask-type:alpha" maskUnits="userSpaceOnUse" x="0" y="0" width="48" height="48">
<rect width="48" height="48" fill="#D9D9D9"/>
</mask>
<g mask="url(#mask0_257_233)">
<path d="M14.769 8C16.5923 8 18.2866 8.4885 19.852 9.4655C21.4173 10.4425 22.8 11.8707 24 13.75C25.2973 11.8217 26.7101 10.3813 28.2385 9.429C29.7668 8.47633 31.431 8 33.231 8C35.7103 8 37.7916 8.84167 39.475 10.525C41.1583 12.2083 42 14.2937 42 16.781C42 17.1527 41.9813 17.5097 41.944 17.852C41.907 18.1943 41.8475 18.5513 41.7655 18.923H40.204C40.268 18.5513 40.327 18.1943 40.381 17.852C40.4346 17.5097 40.4615 17.1527 40.4615 16.781C40.4615 14.709 39.7743 12.984 38.4 11.606C37.0256 10.2277 35.3026 9.5385 33.231 9.5385C31.5563 9.5385 30.0178 10.0315 28.6155 11.0175C27.2128 12.0032 25.8948 13.5358 24.6615 15.6155H23.327C22.0756 13.5435 20.7486 12.0127 19.346 11.023C17.9436 10.0333 16.418 9.5385 14.769 9.5385C12.723 9.5385 11.0063 10.2277 9.61896 11.606C8.23196 12.984 7.53846 14.709 7.53846 16.781C7.53846 17.1527 7.56529 17.5097 7.61896 17.852C7.67296 18.1943 7.73196 18.5513 7.79596 18.923H6.23446C6.15246 18.5513 6.09296 18.1943 6.05596 17.852C6.01862 17.5097 5.99996 17.1527 5.99996 16.781C5.99996 14.2937 6.84162 12.2083 8.52496 10.525C10.2083 8.84167 12.2896 8 14.769 8ZM12.754 29.077H14.769C15.9333 30.2973 17.2776 31.63 18.802 33.075C20.3263 34.52 22.059 36.1387 24 37.931C25.941 36.1387 27.6718 34.5263 29.1925 33.094C30.7128 31.662 32.055 30.323 33.219 29.077H35.246C34 30.4283 32.55 31.9033 30.896 33.502C29.2423 35.1007 27.3193 36.918 25.127 38.954L24 39.996L22.873 38.954C20.6806 36.918 18.7576 35.1007 17.104 33.502C15.45 31.9033 14 30.4283 12.754 29.077ZM22.1 30.769C22.246 30.769 22.3716 30.7223 22.477 30.629C22.582 30.5353 22.6588 30.4153 22.7075 30.269L26.219 19.796L29.1345 24.1575C29.3011 24.3575 29.4781 24.5095 29.6655 24.6135C29.8525 24.7172 30.0665 24.769 30.3075 24.769H44.769V23.231H30.35L26.596 17.623C26.5063 17.4923 26.4025 17.4027 26.2845 17.354C26.1665 17.3053 26.0383 17.281 25.9 17.281C25.754 17.281 25.62 17.3277 25.498 17.421C25.3763 17.5147 25.304 17.6347 25.281 17.781L21.781 28.331L18.7385 23.804C18.5975 23.6297 18.4353 23.4905 18.252 23.3865C18.0686 23.2828 17.8565 23.231 17.6155 23.231H3.23096V24.769H17.5615L21.3155 30.427C21.4051 30.5833 21.5236 30.6795 21.671 30.7155C21.8186 30.7512 21.9616 30.769 22.1 30.769Z" fill="white"/>
</g>
</svg>
