<svg width="48" height="48" viewBox="0 0 48 48" fill="none" xmlns="http://www.w3.org/2000/svg">
<mask id="mask0_257_172" style="mask-type:alpha" maskUnits="userSpaceOnUse" x="0" y="0" width="48" height="48">
<rect width="48" height="48" fill="#D9D9D9"/>
</mask>
<g mask="url(#mask0_257_172)">
<path d="M21.8385 29.4961L31.8155 19.5576L30.754 18.4691L21.9115 27.3116L17.246 22.6461L16.123 23.7691L21.8385 29.4961ZM24 41.9116C19.9743 40.6936 16.6347 38.2289 13.981 34.5176C11.327 30.8059 10 26.6476 10 22.0426V11.3731L24 6.14258L38 11.3731V22.0426C38 26.6476 36.673 30.8059 34.019 34.5176C31.3653 38.2289 28.0257 40.6936 24 41.9116ZM24 40.2731C27.6283 39.1091 30.6123 36.8264 32.952 33.4251C35.2917 30.0237 36.4615 26.2296 36.4615 22.0426V12.4346L24 7.76558L11.5385 12.4346V22.0426C11.5385 26.2296 12.7083 30.0237 15.048 33.4251C17.3877 36.8264 20.3717 39.1091 24 40.2731Z" fill="white"/>
</g>
</svg>
